<svg width="296" height="41" viewBox="0 0 296 41" fill="none" xmlns="http://www.w3.org/2000/svg">
<path d="M15.123 41C15.243 41 15.3631 41 15.4831 41C18.7838 40.8662 22.0844 39.9967 24.785 37.4551C28.1456 34.3785 29.2258 30.6329 29.1658 27.8907C29.0458 24.2121 27.7255 22.0718 25.205 20.2659C22.8646 18.46 20.9442 17.7912 18.1236 16.9886C16.2032 16.4535 15.3031 16.3197 14.1628 15.9853C12.1224 15.3165 9.72194 14.5807 9.0018 12.9086C8.46169 11.7716 8.94179 9.89886 9.84197 9.09625C10.7421 8.29364 12.1824 7.15661 15.003 7.15661C17.8836 7.15661 19.5039 8.69494 21.2442 9.76509C25.5651 12.3067 28.6857 8.09298 28.6857 8.09298C27.7856 6.82219 26.7653 5.35073 24.5449 3.61175C22.2044 1.73899 18.7237 0 15.003 0C9.60192 0 6.42128 2.20718 4.92098 3.8124C2.82056 6.08646 1.80036 9.43067 1.74035 11.7047C1.68034 14.9821 2.94059 18.5938 6.60132 20.7341C9.12182 22.2055 13.0226 22.8075 15.6031 23.6101C17.7035 24.2121 21.6643 25.2153 21.6643 28.7602C21.7243 32.1044 17.4035 33.5759 15.063 33.5759C12.4825 33.5759 10.7421 32.5057 9.72194 31.8369C9.36187 31.5693 8.46169 31.0343 8.40168 30.9674C3.0006 28.0914 0 32.5057 0 32.5057C0.0600121 32.5726 1.9804 35.5155 6.42128 38.4584C9.36187 40.4649 12.3625 41 15.123 41Z" fill="#2D2A26"/>
<path d="M59.2703 8.36052C59.2703 8.82871 59.2703 16.9217 59.2703 16.9217H45.2875C45.2875 16.9217 45.2875 8.82871 45.2875 8.22675C45.2875 0.334421 38.1461 0.334421 38.1461 0.334421V40.7325C38.1461 40.7325 45.2875 40.7325 45.2875 32.8401C45.2875 32.1044 45.2875 24.0783 45.2875 24.0783H59.2703C59.2703 24.0783 59.2703 31.9038 59.2703 32.7064C59.2703 40.7325 66.4717 40.7325 66.4717 40.7325V0.334421C66.4717 0.334421 59.2703 0.334421 59.2703 8.36052Z" fill="#2D2A26"/>
<path d="M109.597 17.8581C109.597 13.1093 107.857 8.62806 104.676 5.28385C101.555 1.87276 96.6343 0 92.1934 0C87.7525 0 82.7715 1.87276 79.5909 5.28385C76.4703 8.62806 74.7299 13.1093 74.7299 17.8581V23.4095C74.7899 28.0914 76.5303 32.4388 79.5909 35.783C82.7715 39.1272 87.6925 41 92.1334 41C96.5743 41 101.555 39.1272 104.676 35.783C107.797 32.4388 109.537 28.0914 109.597 23.4095V17.8581ZM102.515 22.54C102.515 26.1517 100.655 29.3622 98.5547 31.2349C96.5743 33.0408 93.4537 33.6427 92.1334 33.6427C90.5731 33.6427 87.8125 33.1745 85.4121 31.0343C83.3116 29.0946 81.8113 25.1484 81.8113 22.4731V19.8646C81.8113 15.6509 83.1316 11.7716 85.7121 9.76509C87.8125 8.15987 90.093 7.49103 92.1334 7.49103C94.1738 7.49103 96.6343 8.0261 98.7347 9.69821C100.955 11.4372 102.515 15.584 102.515 19.7977V22.54Z" fill="#2D2A26"/>
<path d="M143.829 6.42088C142.328 3.94617 140.048 2.40783 138.728 1.80587C135.667 0.401304 132.546 0.334421 130.386 0.334421H117.843V40.7325C117.843 40.7325 125.105 40.7325 125.105 32.907C125.105 32.6395 125.105 27.4225 125.105 27.4225H130.326C133.447 27.4225 136.807 27.0212 139.748 25.2153C144.009 22.54 145.569 17.4568 145.569 13.845C145.569 13.845 145.629 9.43067 143.829 6.42088ZM138.307 13.845C138.307 16.0522 137.527 17.5237 136.507 18.5938C135.487 19.5302 133.867 20.3328 131.826 20.3328H125.105V7.15661H131.766C134.587 7.15661 135.907 8.36052 136.507 8.8956C137.647 10.0995 138.307 12.106 138.307 13.845Z" fill="#2D2A26"/>
<path d="M165.554 41C165.674 41 165.794 41 165.914 41C169.215 40.8662 172.515 39.9967 175.216 37.4551C178.576 34.3785 179.657 30.6329 179.597 27.8907C179.477 24.2121 178.156 22.0718 175.636 20.2659C173.295 18.46 171.375 17.7912 168.554 16.9886C166.634 16.4535 165.734 16.3197 164.594 15.9853C162.553 15.3165 160.153 14.5807 159.433 12.9086C158.893 11.7716 159.373 9.89886 160.273 9.09625C161.173 8.29364 162.613 7.15661 165.434 7.15661C168.314 7.15661 169.935 8.69494 171.675 9.76509C175.996 12.3067 179.117 8.09298 179.117 8.09298C178.216 6.82219 177.196 5.35073 174.976 3.61175C172.635 1.73899 169.155 0 165.434 0C160.033 0 156.852 2.20718 155.352 3.8124C153.251 6.08646 152.231 9.43067 152.171 11.7047C152.111 14.9821 153.371 18.5938 157.032 20.7341C159.553 22.2055 163.453 22.8075 166.034 23.6101C168.134 24.2121 172.095 25.2153 172.095 28.7602C172.155 32.1044 167.834 33.5759 165.494 33.5759C162.913 33.5759 161.173 32.5057 160.153 31.8369C159.793 31.5693 158.893 31.0343 158.833 30.9674C153.431 28.0914 150.431 32.5057 150.431 32.5057C150.491 32.5726 152.411 35.5155 156.852 38.4584C159.793 40.4649 162.793 41 165.554 41Z" fill="#2D2A26"/>
<path d="M209.701 8.36052C209.701 8.82871 209.701 16.9217 209.701 16.9217H195.718C195.718 16.9217 195.718 8.82871 195.718 8.22675C195.718 0.334421 188.577 0.334421 188.577 0.334421V40.7325C188.577 40.7325 195.718 40.7325 195.718 32.8401C195.718 32.1044 195.718 24.0783 195.718 24.0783H209.701C209.701 24.0783 209.701 31.9038 209.701 32.7064C209.701 40.7325 216.903 40.7325 216.903 40.7325V0.334421C216.903 0.334421 209.701 0.334421 209.701 8.36052Z" fill="#2D2A26"/>
<path d="M260.028 17.8581C260.028 13.1093 258.287 8.62806 255.107 5.28385C251.986 1.87276 247.065 0 242.624 0C238.183 0 233.202 1.87276 230.022 5.28385C226.901 8.62806 225.161 13.1093 225.161 17.8581V23.4095C225.221 28.0914 226.961 32.4388 230.022 35.783C233.202 39.1272 238.123 41 242.564 41C247.005 41 251.986 39.1272 255.107 35.783C258.227 32.4388 259.968 28.0914 260.028 23.4095V17.8581ZM252.946 22.54C252.946 26.1517 251.086 29.3622 248.986 31.2349C247.005 33.0408 243.884 33.6427 242.564 33.6427C241.004 33.6427 238.243 33.1745 235.843 31.0343C233.742 29.0946 232.242 25.1484 232.242 22.4731V19.8646C232.242 15.6509 233.562 11.7716 236.143 9.76509C238.243 8.15987 240.524 7.49103 242.564 7.49103C244.605 7.49103 247.065 8.0261 249.166 9.69821C251.386 11.4372 252.946 15.584 252.946 19.7977V22.54Z" fill="#2D2A26"/>
<path d="M294.259 6.42088C292.759 3.94617 290.479 2.40783 289.158 1.80587C286.098 0.401304 282.977 0.334421 280.817 0.334421H268.274V40.7325C268.274 40.7325 275.536 40.7325 275.536 32.907C275.536 32.6395 275.536 27.4225 275.536 27.4225H280.757C283.877 27.4225 287.238 27.0212 290.179 25.2153C294.439 22.54 296 17.4568 296 13.845C296 13.845 296.06 9.43067 294.259 6.42088ZM288.738 13.845C288.738 16.0522 287.958 17.5237 286.938 18.5938C285.918 19.5302 284.297 20.3328 282.257 20.3328H275.536V7.15661H282.197C285.018 7.15661 286.338 8.36052 286.938 8.8956C288.078 10.0995 288.738 12.106 288.738 13.845Z" fill="#2D2A26"/>
</svg>
